<?xml version="1.0" encoding="UTF-8"?>
<svg xmlns="http://www.w3.org/2000/svg" xmlns:xlink="http://www.w3.org/1999/xlink" width="28.8pt" height="33.6pt" viewBox="0 0 32 42" version="1.1">
<g id="surface1">
<path fill="#1c1d25" style="fill-opacity:1;" d="M 16 39.375 C 7.164062 39.375 0 37.023438 0 34.125 C 0 32.539062 0 30.808594 0 28.875 C 0 28.417969 0.230469 27.984375 0.566406 27.5625 C 2.347656 29.824219 8.550781 31.5 16 31.5 C 23.449219 31.5 29.652344 29.824219 31.433594 27.5625 C 31.769531 27.984375 32 28.417969 32 28.875 C 32 30.394531 32 32.007812 32 34.125 C 32 37.023438 24.832031 39.375 16 39.375 Z M 16 28.875 C 7.164062 28.875 0 26.523438 0 23.625 C 0 22.039062 0 20.308594 0 18.375 C 0 18.097656 0.105469 17.828125 0.25 17.558594 C 0.332031 17.390625 0.4375 17.226562 0.566406 17.0625 C 2.347656 19.320312 8.550781 21 16 21 C 23.449219 21 29.652344 19.320312 31.433594 17.0625 C 31.5625 17.226562 31.667969 17.390625 31.75 17.558594 C 31.894531 17.828125 32 18.097656 32 18.375 C 32 19.894531 32 21.507812 32 23.625 C 32 26.523438 24.832031 28.875 16 28.875 Z M 16 18.375 C 7.164062 18.375 0 16.023438 0 13.125 C 0 12.296875 0 11.417969 0 10.5 C 0 9.664062 0 8.800781 0 7.875 C 0 4.976562 7.164062 2.625 16 2.625 C 24.832031 2.625 32 4.976562 32 7.875 C 32 8.695312 32 9.5625 32 10.5 C 32 11.304688 32 12.152344 32 13.125 C 32 16.023438 24.832031 18.375 16 18.375 Z M 16 5.25 C 10.109375 5.25 5.332031 6.421875 5.332031 7.875 C 5.332031 9.328125 10.109375 10.5 16 10.5 C 21.890625 10.5 26.667969 9.328125 26.667969 7.875 C 26.667969 6.421875 21.890625 5.25 16 5.25 Z M 16 5.25 "/>
</g>
</svg>
