<?xml version="1.0"?>
<svg enable-background="new 0 0 32 32" version="1.1" viewBox="0 0 32 32" xml:space="preserve" xmlns="http://www.w3.org/2000/svg" xmlns:xlink="http://www.w3.org/1999/xlink">
    <g id="Style_2">
        <g>
            <g>
                <path d="M16,31.625c-8.616,0-15.625-7.01-15.625-15.625C0.375,7.384,7.384,0.375,16,0.375     c8.615,0,15.625,7.009,15.625,15.625C31.625,24.615,24.615,31.625,16,31.625z" fill="transparent" />
                <path d="M16,0.75c8.409,0,15.25,6.841,15.25,15.25S24.409,31.25,16,31.25S0.75,24.409,0.75,16S7.591,0.75,16,0.75      M16,0C7.163,0,0,7.163,0,16c0,8.836,7.163,16,16,16s16-7.164,16-16C32,7.163,24.837,0,16,0L16,0z" fill="transparent" />
            </g>
        </g>
        <g>
            <polygon fill="#65CCB8" points="6.518,21.815 11.707,15.291 6.518,12.119   " />
            <polygon fill="#65CCB8" points="19.5,15.746 15.989,17.908 12.472,15.758 7.11,22.5 24.867,22.5   " />
            <polygon fill="#65CCB8" points="15.988,16.864 25.482,11.017 25.482,9.5 6.518,9.5 6.518,11.076   " />
            <polygon fill="#65CCB8" points="20.263,15.276 25.482,21.843 25.482,12.062   " />
        </g>
    </g>
</svg>